<?xml version="1.0" encoding="UTF-8"?>
<svg width="24px" height="24px" viewBox="0 0 24 24" version="1.1" xmlns="http://www.w3.org/2000/svg" xmlns:xlink="http://www.w3.org/1999/xlink">
    <!-- Generator: sketchtool 52.6 (67491) - http://www.bohemiancoding.com/sketch -->
    <title>D32A5D65-3739-4433-9C87-C203B25D4660</title>
    <desc>Created with sketchtool.</desc>
    <g id="Mockups-@-1440-Iteration-2" stroke="none" stroke-width="1" fill="none" fill-rule="evenodd">
        <g id="41" transform="translate(-314.000000, -241.000000)">
            <g id="Group-19" transform="translate(314.000000, 241.000000)">
                <circle id="Oval" fill="#E94B35" cx="12" cy="12" r="12"></circle>
                <g id="cancel" transform="translate(7.500000, 7.500000)" fill="#FFFFFF" fill-rule="nonzero" stroke="#FFFFFF" stroke-width="0.5">
                    <path d="M4.0455199,4.47474534 L0.0853119494,8.46262025 C-0.0247093602,8.5734102 -0.0247093602,8.75289835 0.0853119494,8.8636883 C0.140252705,8.91915366 0.212388659,8.94674556 0.284384814,8.94674556 C0.356520768,8.94674556 0.428516924,8.91915366 0.483457679,8.8636883 L4.47344268,4.8458283 L8.46342768,8.8636883 C8.51850823,8.91915366 8.59050439,8.94674556 8.66250055,8.94674556 C8.7344967,8.94674556 8.80663266,8.91915366 8.86157341,8.8636883 C8.97159472,8.75289835 8.97159472,8.5734102 8.86157341,8.46262025 L4.90150526,4.47474534 L8.86422958,0.484054924 C8.97425089,0.373264979 8.97425089,0.193776822 8.86422958,0.0829868773 C8.75420827,-0.0276622924 8.57596536,-0.0276622924 8.46608385,0.0829868773 L4.47358248,4.10366237 L0.480661712,0.0831276524 C0.370640403,-0.0275215174 0.192537292,-0.0275215174 0.0825159822,0.0831276524 C-0.0275053274,0.193917597 -0.0275053274,0.373405754 0.0825159822,0.484195699 L4.0455199,4.47474534 Z" id="Shape"></path>
                </g>
            </g>
        </g>
    </g>
</svg>