<?xml version="1.0" encoding="UTF-8"?>
<svg width="12px" height="12px" viewBox="0 0 12 12" version="1.1" xmlns="http://www.w3.org/2000/svg" xmlns:xlink="http://www.w3.org/1999/xlink">
    <title>0BEA9F45-2FA5-4B11-980A-6C3CC7DFC3D3</title>
    <desc>Created with sketchtool.</desc>
    <g id="Mockups-@-1440-Iteration-2" stroke="none" stroke-width="1" fill="none" fill-rule="evenodd" fill-opacity="0.5">
        <g id="18" transform="translate(-1212.000000, -103.000000)" fill="#212A39" fill-rule="nonzero">
            <path d="M1219.1983,109 L1223.75182,113.553528 C1224.08273,113.884428 1224.08273,114.420924 1223.75182,114.751825 C1223.42092,115.082725 1222.88443,115.082725 1222.55353,114.751825 L1218,110.198297 L1213.44647,114.751825 C1213.11557,115.082725 1212.57908,115.082725 1212.24818,114.751825 C1211.91727,114.420924 1211.91727,113.884428 1212.24818,113.553528 L1216.8017,109 L1212.24818,104.446472 C1211.91727,104.115572 1211.91727,103.579076 1212.24818,103.248175 C1212.57908,102.917275 1213.11557,102.917275 1213.44647,103.248175 L1218,107.801703 L1222.55353,103.248175 C1222.88443,102.917275 1223.42092,102.917275 1223.75182,103.248175 C1224.08273,103.579076 1224.08273,104.115572 1223.75182,104.446472 L1219.1983,109 Z" id="Combined-Shape"></path>
        </g>
    </g>
</svg>