<?xml version="1.0" encoding="utf-8"?>
<!-- Generator: Adobe Illustrator 22.1.0, SVG Export Plug-In . SVG Version: 6.00 Build 0)  -->
<svg version="1.1" id="Layer_1" xmlns="http://www.w3.org/2000/svg" xmlns:xlink="http://www.w3.org/1999/xlink" x="0px" y="0px"
	 viewBox="0 0 800 800" style="enable-background:new 0 0 800 800;" xml:space="preserve">
<style type="text/css">
	.st0{fill:#145172;}
	.st1{fill:#48698A;}
	.st2{fill:#4B6C8C;}
	.st3{fill:#839AB0;}
	.st4{fill:#446688;}
	.st5{fill:#899FB4;}
	.st6{fill:#255CA8;}
	.st7{fill:#FEFEFE;}
	.st8{fill:#CBE7EF;}
	.st9{fill:#FFFFFF;}
</style>
<title>group</title>
<circle class="st0" cx="400" cy="400" r="400"/>
<path class="st1" d="M0,408c1.9,2.9,0.7,6,0.9,9.1c-0.3,0.5-0.6,0.5-0.9-0.1V408z"/>
<path class="st1" d="M0.9,384.9c-0.2,3,1,6.2-0.9,9.1v-9C0.3,384.4,0.6,384.4,0.9,384.9z"/>
<path class="st2" d="M422,1c-2.3,1.7-4.7,1.4-7,0H422z"/>
<path class="st3" d="M0,417c0.3,0,0.6,0,0.9,0.1c-0.2,2,0.9,4.2-0.9,5.9V417z"/>
<path class="st3" d="M0.9,384.9c-0.3,0-0.6,0.1-0.9,0.1v-6C1.8,380.7,0.7,382.9,0.9,384.9z"/>
<path class="st4" d="M386,1c-1.8,1.7-4,0.8-6.1,0.9c-0.3-0.2-0.4-0.4-0.3-0.6c0.1-0.1,0.2-0.2,0.4-0.3H386z"/>
<path class="st5" d="M380,1c0,0.3-0.1,0.6-0.1,0.9c-2-0.3-4.2,1.2-5.9-0.9H380z"/>
<path class="st5" d="M374,801c1.7-2.1,3.9-0.6,5.9-0.9c0.8,0.2,0.8,0.5,0.1,0.9H374z"/>
<path class="st4" d="M380,801c0-0.3-0.1-0.6-0.1-0.9c2.1,0,4.3-0.8,6.1,0.9H380z"/>
<path class="st2" d="M415,801c2-1.4,4-1.6,6,0H415z"/>
<path class="st6" d="M225.2,685c-0.7-6.5-2.7-7.6-8.2-4.6c-15.5,8.5-31,16.8-46.4,25.5c-2.8,1.6-4.5,1.1-6.6-0.6
	c-47.2-36.8-85.3-84-111.3-138C-39,374.9,42.7,144.6,235.1,52.9c31.2-14.9,64.3-25.5,98.3-31.5c29.2-5.2,58.9-6.9,88.5-5.2
	c52.7,2.8,104.2,16.6,151.3,40.5c29.2,14.7,56.3,33.1,80.9,54.7c39.6,34.7,71.7,77.1,94.4,124.6c16.9,35.2,27.7,72.4,33.5,111
	c3.8,25.8,4.4,51.8,2.9,77.7c-2.7,46.6-14,92.4-33.4,134.9c-22.2,48.8-53.4,90.9-92.7,127.1c-7.5,6.9-15.6,13-23.4,19.5
	c-2.2,1.8-4.2,2-6.8,0.6c-40.5-20.3-81-40.6-121.6-60.8c-12.3-6.1-20.9-15.2-24.3-28.7c-1.1-4-1.6-8.2-1.6-12.4c0.1-13,0-26,0-39
	c-0.2-2.3,0.6-4.6,2-6.5c18.4-22.6,32.2-47.7,42.3-74.9c0.3-0.9,0.7-1.9,1-2.8c1.5-5.5,4.5-9.1,9.9-12.1
	c13.8-7.8,20.8-20.2,20.8-36.2c0-16.8-0.1-33.7,0.1-50.5c0.1-8.7-2.1-16.8-7.3-23.4c-4.2-5.3-5.4-10.7-4.9-17c0.1-1.2,0.1-2.3,0-3.5
	c-0.3-3-1.5-5.5-4.9-6.1c-1.7-1.4-2-3.3-2-5.4c-0.1-15.8-0.4-31.6,0.2-47.3c0.2-4.8,0.1-9.6,0.5-14.3c3.9-4.4,3-9.3,1.8-14.5
	c-8.4-37.7-32.1-61.5-67.6-74.6c-19.4-7.1-39.5-10.1-60.1-10.9c-23.1-0.9-45.9,0.5-68.3,6.1c-20.3,5.1-39.1,13.5-54.6,28
	s-24.8,32.3-28.9,53c-1.4,6.9-2,13.8-2,20.8c0.1,24.2,0,48.3,0.1,72.5c0,4.7-1,8.8-4,12.5c-5.8,7.3-8.2,15.8-8.1,25.1
	c0.2,16.8,0.1,33.7,0,50.5c0,11.6,4.7,21,12.9,28.7c3.1,2.8,5.3,6.4,6.4,10.4c8.2,29.6,21.7,57.5,39.8,82.3c2.7,3.5,4.1,7.7,4,12.1
	c-0.1,12.7,0.3,25.3-0.1,38c-0.5,16.7-7.7,29.7-22.5,38.1c-10.4,5.9-21,11.6-31.6,17.3c-2.8,1.5-5,3.2-5.8,6.4
	c-2.2,3.7-6.2,4.9-9.6,6.8C234.9,677.3,229.8,680.9,225.2,685z"/>
<path class="st7" d="M540,265.1l-0.1,67.9c-3.5,0.6-4.6,2.9-4.5,6.1c0.1,1.7,0.1,3.3,0,5c-0.4,7.4-0.1,14,6.1,19.9
	c5.1,4.8,6.5,12.1,6.5,19.4c-0.1,16.6,0,33.3,0,50c0.2,13.9-8.5,26.4-21.6,31.1c-3.4,1.2-4.9,3.1-6,6.4
	c-10.4,31.2-25.4,59.9-46.5,85.3c-2.4,2.9-1.3,6-2,8.9c-2.8,7.6-9.6,11.3-15.7,15.4c-17,11.6-37,17.9-57.6,18.2
	c-8.2,0.2-16.6-0.2-24.6-3c-1.7-0.8-3.4-1.3-5.2-1.7c-15.9-2.5-29-10.4-40.5-21.2c-22.6-21.2-37.4-47.4-49-75.7
	c-3.8-9.2-7-18.7-9.4-28.4c-0.7-2.9-2.3-5.5-4.7-7.4c-8.7-7.2-13.4-16.3-13.4-27.8c0.1-16.8,0.1-33.7,0-50.5
	c-0.2-8.3,2.8-16.3,8.3-22.4c2.6-2.8,3.9-6.6,3.7-10.4c-0.1-26.2-0.4-52.3,0.1-78.5c0.3-18.3,5-35.5,15-51.1
	c10.8-16.8,25.9-28.4,44-36.3c17-7.4,34.8-11.2,53.2-12.5c25.8-1.9,51.5-1.7,77,4.1c21,4.8,40.2,13.3,56,28.2
	c14.2,13.4,22.7,30.2,26.6,49.3C536.7,257.6,537.5,261.6,540,265.1z"/>
<path class="st8" d="M394.5,599.4c-1.3,1.8-11.6-4-13.5-4.2c-15.9-2.5-20.1-11.6-31.6-22.4c-22.6-21.2-37.4-47.4-49-75.7
	c-3.8-9.2-7-18.7-9.4-28.4c-0.7-2.9-2.3-5.5-4.7-7.4c-8.7-7.2-13.4-16.3-13.4-27.8c0.1-16.8,0.1-33.7,0-50.5
	c-0.2-8.3,2.8-16.3,8.3-22.4c2.6-2.8,3.9-6.6,3.7-10.4c-0.1-26.2-0.4-52.3,0.1-78.5c0.3-18.3,5-35.5,15-51.1
	c10.8-16.8,25.9-28.4,44-36.3c17-7.4,34.8-11.2,53.2-12.5c5.4-0.4,10.9-0.7,16.3-0.9c-12.4-0.4-24.9-0.1-37.3,0.9
	c-18.4,1.3-36.2,5.1-53.2,12.5c-18.1,7.9-33.2,19.5-44,36.3c-10,15.6-14.7,32.8-15,51.1c-0.5,26.1-0.2,52.3-0.1,78.5
	c0.2,3.8-1.2,7.6-3.8,10.4c-5.6,6.1-8.6,14.2-8.3,22.4c0.2,16.8,0.1,33.6,0,50.5c0,11.5,4.7,20.6,13.4,27.8c2.4,1.9,4,4.5,4.7,7.4
	c2.4,9.7,5.5,19.2,9.4,28.4c11.6,28.3,26.4,54.6,49,75.7c11.5,10.8,24.6,18.7,40.5,21.2c1.8,0.4,3.5,1,5.2,1.7
	c8,2.8,16.4,3.1,24.6,3c2.7,0,5.4-0.2,8-0.4C402.8,597.8,396.8,596.1,394.5,599.4z"/>
<path class="st7" d="M225.2,685c-0.1-4.3,2.9-5.9,6.2-7.6c5.9-3,11.7-6.2,17.5-9.3c4.5,0.3,8.3-1.4,12.2-3.5
	c8.7-4.9,17.5-9.6,26.2-14.3c13.8-7.3,23.1-18.1,26.6-33.6c0.5-2.1,0.9-4.3,3.3-5.2c3.6,0,5.5,2.8,7.7,5.1
	c10,10.6,21.8,19.3,34.9,25.6c20.9,10,42,10.5,63.4,2c16.1-6.3,29.4-16.8,42.3-28c1.2-1.2,2.5-2.2,3.9-3c2-1,3.1-0.4,3.4,1.8
	c3.2,17.6,12.8,30.3,28.8,38.3c39.1,19.5,78.2,39.1,117.3,58.7c1.5,0.7,3,1.5,5.1,2.6c-64.1,45-134.7,69.3-212.6,71.5
	c-86.7,2.4-165.2-22.2-236.5-72.5c15.6-8.5,30.5-16.6,45.3-24.8C222.1,687.9,224.4,687.4,225.2,685z"/>
<path class="st9" d="M472.8,615c-1.6-2.3-2.7-0.5-3.8,0.5c-9.6,9.2-20.2,17.3-31.7,24c-29.4,16.8-58.7,17.1-87.8-0.6
	c-9-5.4-17.2-11.9-24.5-19.5c-2.5-2.6-5.3-5-7.9-7.5c-2.1-1.5-2-3.7-2-5.9c-0.1-9.3,0-18.6,0-27.9c0-0.7,0-1.3,0.1-2
	c0.6-4.8,3-5.8,6.6-2.7c4.4,3.8,8.7,7.7,13.4,11.2c8.4,6.3,18,10.8,28.2,13.3c5,1.2,9.2,1.4,11.7-4c15.9,3.6,32.5,3.3,48.2-0.9
	c18.4-4.9,35.3-14.6,48.8-28.1c0.1,11.9,0.1,23.8,0.2,35.7C472.2,605.5,472.6,610.2,472.8,615z"/>
<path class="st0" d="M375,594c1.8,5.9-2,7.7-7.8,6.8c-14.4-2.2-26.7-8.8-37.8-17.9c-4-3.2-7.7-6.8-12.5-11v40
	c-1.9,9.5-5,18.5-11.4,26.1c-3.9,4.8-8.6,8.8-14,11.8c-11.6,6.4-23.3,12.7-34.9,19.1c-2.9,1.6-5.6,2.4-7.8-0.9
	c-1.5-4.3,1.3-6,4.4-7.7c11-6,21.9-12,32.9-17.9c14.3-7.8,21.3-20.3,21.8-36.2c0.4-13.5,0-27,0.1-40.5c0.1-2.5-0.8-4.9-2.3-6.9
	c-19.4-26.5-33.8-55.3-42-87.2c-0.6-2.4-2-4.5-4-6.1c-9.4-7.9-14.7-18-14.8-30.4c-0.1-17.7,0-35.3-0.1-53
	c-0.2-9.4,3.1-18.6,9.2-25.7c2-2.4,3-5.4,2.9-8.5c-0.1-25.1-0.2-50.3-0.1-75.5c0.2-27.1,9.1-51,27.9-70.7
	c17-17.8,38.8-27.1,62.3-32.8c16.5-3.9,33.5-5.8,50.4-5.7c32,0,63.5,3.3,92.4,18.7c30.5,16.2,48.1,41.6,53.7,75.6
	c0.5,3.3,0.3,6.5-3.8,7.5c-3,0-4.5-1.6-5-4.5c-7.1-46.2-36.4-71.5-79.8-81.8c-41.2-9.8-82.7-9.5-123.1,4.3
	c-35.3,12.1-57.8,36.2-64.7,73.7c-1.4,8.1-1.4,16.2-1.3,24.4c0.2,24.2,0,48.3,0.1,72.5c0.1,2.1-0.7,4.2-2.3,5.6
	c-6.7,6.4-10.4,15.4-10.1,24.6c0.1,16.3,0.1,32.7,0,49c0,11.5,4.7,20.7,13.9,27.3c2.8,2,3.5,4.5,4.3,7.4
	c10.3,38.4,27.5,73.1,55.8,101.5c11.9,12,25.7,21.1,43.3,22.8C372.7,592.2,373.8,593.1,375,594z"/>
</svg>
